<?xml version="1.0" standalone="no"?><!DOCTYPE svg PUBLIC "-//W3C//DTD SVG 1.1//EN" "http://www.w3.org/Graphics/SVG/1.1/DTD/svg11.dtd"><svg t="1572791154856" class="icon" viewBox="0 0 1024 1024" version="1.1" xmlns="http://www.w3.org/2000/svg" p-id="1357" xmlns:xlink="http://www.w3.org/1999/xlink" width="200" height="200"><defs><style type="text/css"></style></defs><path d="M87.38524 214.206669m38.630129 0l771.903453 0q38.630129 0 38.630129 38.630129l0 732.464531q0 38.630129-38.630129 38.630129l-771.903453 0q-38.630129 0-38.630129-38.630129l0-732.464531q0-38.630129 38.630129-38.630129Z" fill="#C12937" p-id="1358"></path><path d="M491.068717 127.583609a5.140631 5.140631 0 0 1-3.399671-1.274877C471.863319 112.408466 331.16082-9.856303 281.536595 0.644292c-50.58381 10.774763-58.438694 67.321704-33.352415 101.441787a5.168048 5.168048 0 0 1-0.644292 6.922716c-9.815178 8.787052-35.54575 36.46421-32.900039 83.017765 3.043254 54.696315 62.551199 45.676221 68.130497 44.716636a5.030964 5.030964 0 0 1 0.877334-0.068542l519.395655 1.192627a5.154339 5.154339 0 0 0 5.154339-4.647131c2.316711-23.167111 2.179628-47.485723-3.550462-70.145624-4.386672-17.341062-13.639808-32.762955-30.81637-39.905006-2.41267-1.00071-5.264006-2.193336-5.867173-4.743089a7.073508 7.073508 0 0 1 0.41125-3.687546c5.126923-16.258103 21.809984-25.936197 25.264488-42.893425 4.249588-20.822983-12.145598-46.786597-28.48595-58.877361a64.045409 64.045409 0 0 0-38.794629-12.899557c-46.485013 0.630584-174.973373 112.984217-190.052558 126.308732a5.126923 5.126923 0 0 1-3.413379 1.288585z" fill="#C80000" p-id="1359"></path><path d="M507.093777 182.321048a299.225853 299.225853 0 0 1-79.64551-11.090054c-71.283417-19.712607-119.262641-58.644319-121.305185-60.316738a21.52348 21.52348 0 0 1 27.265907-33.311289c0.822501 0.671709 44.346511 35.518334 106.925126 52.502978 81.989638 22.234943 157.412977 4.674547 224.17264-52.215103a21.522109 21.522109 0 0 1 27.910199 32.762955C628.261879 165.36382 563.147219 182.321048 507.093777 182.321048z" fill="#990000" p-id="1360"></path><path d="M425.090431 74.011379m74.710504 0l24.346029 0q74.710505 0 74.710505 74.710505l0 24.346029q0 74.710505-74.710505 74.710504l-24.346029 0q-74.710505 0-74.710504-74.710504l0-24.346029q0-74.710505 74.710504-74.710505Z" fill="#FF9700" p-id="1361"></path><path d="M87.38524 439.640477v100.372535l849.177419-158.166936v-100.372536L87.38524 439.640477zM936.562659 566.716877v-100.372535L87.38524 624.49757v100.372535l849.177419-158.153228zM936.562659 751.57397v-100.372535L87.38524 809.368372v100.372535l849.177419-158.166937zM936.562659 836.058528L87.38524 994.225465v10.582846a19.191689 19.191689 0 0 0 19.19169 19.191689h360.159466l469.785138-87.500395z" fill="#FFFFFF" p-id="1362"></path><path d="M83.002681 220.652335l851.792972-12.935198 4.074121 268.281996-851.792971 12.935198z" fill="#990000" opacity=".32" p-id="1363"></path><path d="M25.519459 201.485321m38.876879 0l895.155223 0q38.876879 0 38.87688 38.876879l0 123.114687q0 38.876879-38.87688 38.876879l-895.155223 0q-38.876879 0-38.876879-38.876879l0-123.114687q0-38.876879 38.876879-38.876879Z" fill="#007D3D" p-id="1364"></path><path d="M415.193002 201.485321h193.548187v200.868445H415.193002z" fill="#C60021" p-id="1365"></path></svg>