<?xml version="1.0" standalone="no"?><!DOCTYPE svg PUBLIC "-//W3C//DTD SVG 1.1//EN" "http://www.w3.org/Graphics/SVG/1.1/DTD/svg11.dtd"><svg t="1572793594331" class="icon" viewBox="0 0 1047 1024" version="1.1" xmlns="http://www.w3.org/2000/svg" p-id="4254" xmlns:xlink="http://www.w3.org/1999/xlink" width="204.4921875" height="200"><defs><style type="text/css"></style></defs><path d="M714.910573 546.79106l231.214212-253.212607 9.349502 8.538223-231.214212 253.212608z" fill="#323333" p-id="4255"></path><path d="M864.806275 398.230372a6.330315 6.330315 0 0 1-0.102693-12.66063l68.393811-1.173639h0.102693a6.330315 6.330315 0 0 1 0.102694 12.660631l-68.393811 1.173638z" fill="#323333" p-id="4256"></path><path d="M957.171662 202.834155c16.137536-3.652951 19.658453 12.191175 20.77341 19.863839 8.948997-13.291461 34.607679-24.426361 53.136504-7.863381 36.676218 32.788539 6.821777 73.48447-43.835415 98.497651-27.023037 13.379484-72.985673-12.161834-61.806762-56.90682 4.298453-17.047106 15.550716-49.879656 31.732263-53.591289z" fill="#2F7700" p-id="4257"></path><path d="M970.331089 343.744183c-15.770774-23.839542-49.204814-51.244011-69.611461-60.310372-6.278968-2.831404-3.843668-9.257077-1.158969-12.587278 8.12745-9.93192 17.325845-19.658453 27.69788-15.462693 26.964355 10.973524 53.928711 34.578338 67.484241 58.857994 5.13467 9.227736-3.696963 20.215931-11.73639 29.032894-3.755645 4.093066-9.609169 5.178682-12.675301 0.469455z" fill="#2F7700" p-id="4258"></path><path d="M356.165817 630.97765l12.924699-9.3451L117.110229 270.582464l-12.910028 9.3451L356.165817 630.97765z" fill="#323333" p-id="4259"></path><path d="M203.416705 413.707736a7.995415 7.995415 0 0 0 1.980516-15.858796l-85.264871-11.384298h-0.132035a7.995415 7.995415 0 0 0-1.980515 15.858796l85.264871 11.384298z" fill="#323333" p-id="4260"></path><path d="M122.714356 158.030487c-18.98361-8.332837-27.184413 10.445387-30.39725 19.687794-7.878052-18.587507-36.910946-38.480688-63.772607-22.343152-53.048481 31.952321-25.966762 89.489971 30.617306 132.474499 30.191862 22.988653 93.0549 2.229914 89.944757-55.865215-1.232321-22.196447-7.276562-65.533066-26.392206-73.953926z" fill="#2F7700" p-id="4261"></path><path d="M72.805358 329.528481c25.174556-25.805387 73.015014-51.845501 100.404814-58.241833 8.43553-2.024527 6.953811-10.562751 4.401146-15.330659-7.672665-14.230372-16.709685-28.460745-30.514613-25.732035-35.928023 7.203209-74.819484 30.074499-97.353352 56.950831-8.538223 10.269341-0.264069 25.937421 7.555301 38.759427 3.62361 5.985559 10.592092 8.72894 15.506704 3.594269z" fill="#2F7700" p-id="4262"></path><path d="M712.570631 263.23255c3.388883 25.849398 46.945559 33.74212 50.994613-6.513696 27.580516-278.445845-332.418567-331.215587-380.933868-154.230831 13.408825 32.099026 248.532722 60.354384 260.049054 62.3349 30.089169 5.354728 60.515759 26.832321 69.890201 98.409627z" fill="#C40000" p-id="4263"></path><path d="M490.063353 1024c170.045616 0 308.799083-138.694785 308.799083-308.725731s-138.753467-308.784413-308.799083-308.784412-308.755072 138.694785-308.755072 308.784412S320.003066 1024 490.063353 1024z" fill="#E5E5E5" p-id="4264"></path><path d="M466.898654 926.764011c139.765731 0 253.711404-113.960344 253.711404-253.711404s-113.945673-253.711404-253.711404-253.711404-253.682063 113.975014-253.682064 253.711404S327.162264 926.764011 466.898654 926.764011z" fill="#FFFFFF" p-id="4265"></path><path d="M319.577622 390.689742c-14.75851-17.135129-26.142808 2.684699-19.966533 29.605043s-41.077364 40.123782-18.396791 68.511175c80.335587 100.419484 328.090774 103.353582 409.89341-10.269341 21.037479-29.238281-21.624298-30.133181-17.296504-47.28298s8.875645-72.912321-12.572608-43.36596c-71.753352 98.923095-257.863152 100.052722-341.660974 2.802063z" fill="#286600" p-id="4266"></path><path d="M675.777049 420.837593c-42.76447 35.062464-108.928367 59.576848-106.096963 77.841605 2.728711 17.707278 73.352436-18.572837 115.662121-50.935932-6.675072-4.855931-13.379484-9.213066-11.531003-16.518968a102.854785 102.854785 0 0 0 1.965845-10.386705z" fill="#040000" opacity=".2" p-id="4267"></path><path d="M583.118252 442.212493c24.074269 7.81937 49.879656 14.435759 81.186476 66.178567s66.222579-90.282178-81.186476-66.178567z" fill="#040000" opacity=".2" p-id="4268"></path><path d="M781.874012 519.511289a5.090659 5.090659 0 0 1 4.254441-5.868194 5.164011 5.164011 0 0 1 5.868195 4.254441c1.129628 7.100516 2.42063 23.062006 3.124814 39.683667 0.557479 13.320802 0.718854 27.067049 0.088022 37.086992a5.193352 5.193352 0 0 1-5.457421 4.82659 5.12 5.12 0 0 1-4.797249-5.457421c0.60149-9.843897 0.469456-23.164699 0-36.016046-0.689513-16.225559-1.951175-31.673582-3.080802-38.510029zM766.264613 536.763782a5.125868 5.125868 0 1 1 10.122637-1.613753c1.129628 7.100516 2.449971 23.062006 3.168825 39.698338 0.528138 13.306132 0.689513 27.037708 0 37.086991a5.14494 5.14494 0 1 1-10.269341-0.645501c0.630831-9.829226 0.498797-23.164699 0-36.001376-0.61616-16.196218-1.951175-31.673582-3.022121-38.524699zM748.527994 544.407106a5.153742 5.153742 0 0 1 10.181319-1.599083c1.100287 7.085845 2.42063 23.032665 3.110143 39.610315 0.557479 13.320802 0.689513 27.052378 0 37.086992a5.143473 5.143473 0 1 1-10.269341-0.616161c0.630831-9.843897 0.469456-23.17937 0-36.030716-0.645501-16.137536-1.951175-31.6149-3.022121-38.451347zM732.815903 550.377994a5.10533 5.10533 0 0 1 4.254441-5.868195 5.164011 5.164011 0 0 1 5.868195 4.269112c1.129628 7.085845 2.42063 23.032665 3.110143 39.610315 0.557479 13.291461 0.718854 27.037708 0.088023 37.057651a5.164011 5.164011 0 0 1-5.457421 4.81192 5.090659 5.090659 0 0 1-4.797249-5.428081c0.60149-9.843897 0.469456-23.164699 0-36.016046-0.762865-16.122865-1.995186-31.6149-3.066132-38.436676zM715.299341 556.847679a5.139072 5.139072 0 0 1 10.151977-1.613753c1.129628 7.085845 2.435301 23.032665 3.124814 39.610315 0.557479 13.320802 0.748195 27.067049 0.088023 37.086991a5.149341 5.149341 0 1 1-10.269341-0.645501c0.630831-9.799885 0.498797-23.135358 0-35.986705-0.748195-16.137536-2.024527-31.62957-3.095473-38.451347zM695.831605 558.109341a5.12 5.12 0 0 1 4.254441-5.868195 5.178682 5.178682 0 0 1 5.868195 4.269112c1.129628 7.100516 2.449971 23.032665 3.110143 39.610315 0.557479 13.306132 0.718854 27.067049 0.088023 37.116332a5.149341 5.149341 0 0 1-10.269341-0.660171c0.630831-9.829226 0.498797-23.150029 0-35.986705-0.718854-16.166877-1.980516-31.62957-3.051461-38.480688zM676.583926 547.82533a5.139072 5.139072 0 1 1 10.151977-1.599084c1.129628 7.085845 2.449971 23.032665 3.139484 39.610316 0.528138 13.320802 0.689513 27.067049 0 37.101661a5.149341 5.149341 0 1 1-10.269341-0.63083c0.630831-9.843897 0.498797-23.164699 0-36.016046-0.689513-16.152206-1.892493-31.644241-3.02212-38.466017z" fill="#007D3D" p-id="4269"></path><path d="M578.100946 381.432665c49.424871-59.063381 192.491461 4.195759 212.92745 118.420172 12.910029 71.958739-105.510143 100.507507-114.224413 60.85318s-21.257536-140.088481-115.720802-113.652263-35.326533-30.72 17.017765-65.621089z" fill="#286600" p-id="4270"></path><path d="M567.567536 445.44a180.182923 180.182923 0 0 0 40.813295-49.08745 142.113009 142.113009 0 0 0 14.802522-37.013639 100.258109 100.258109 0 0 1 13.203438-0.322751 153.013181 153.013181 0 0 1-16.85639 43.615359 193.459713 193.459713 0 0 1-30.367908 40.035759 103.089513 103.089513 0 0 0-21.594957 2.772722z" fill="#8EC1C3" p-id="4271"></path><path d="M490.063353 90.883668a198.902464 198.902464 0 0 1 176.251232 291.062464 38.436676 38.436676 0 0 0-5.075989 5.868195c-71.753352 98.996447-257.863152 100.126074-341.660974 2.875415a25.423954 25.423954 0 0 0-2.347278-2.449971A198.961146 198.961146 0 0 1 490.063353 90.883668z" fill="#E5E5E5" p-id="4272"></path><path d="M463.069656 423.698338c87.172034 0 158.265215-71.093181 158.265215-158.279885S550.241691 107.094556 463.069656 107.094556s-158.323897 71.137192-158.323896 158.323897 71.122521 158.279885 158.323896 158.279885z" fill="#FFFFFF" p-id="4273"></path><path d="M300.139227 424.299828c42.309685 36.676218 114.693868 60.83851 111.7451 79.968825s-83.621777-21.917708-124.126992-54.676905c6.455014-7.760688 12.777994-15.682751 12.381892-25.29192z" fill="#040000" opacity=".2" p-id="4274"></path><path d="M473.41235 216.521719c7.995415 0.90957 13.452837 10.665444 12.220516 21.800344s-8.802292 19.438395-16.739026 18.543496-13.452837-10.665444-12.220516-21.800344 8.772951-19.409054 16.739026-18.543496zM379.242493 205.944298c7.995415 0.8949 13.452837 10.665444 12.220516 21.800344s-8.802292 19.438395-16.768367 18.528825-13.423496-10.636103-12.191175-21.785673 8.72894-19.438395 16.739026-18.543496z" fill="#323333" p-id="4275"></path><path d="M452.800315 312.085272a16.680344 16.680344 0 0 1-6.748424 3.242178c-9.917249 2.464642-21.580287 1.995186-31.702922 1.320344-4.738567-0.30808-9.462464-0.792206-14.171691-1.467049-5.13467-0.645501-10.269341-1.467049-15.345329-2.332607q-8.112779-1.467049-16.137536-3.139485-8.376848-1.775129-16.695014-3.814326t-16.85639-4.401146q-8.391519-2.303266-16.709685-4.81192t-16.284241-5.017307q-7.731347-2.552665-15.404011-5.310716-7.159198-2.582006-14.259714-5.369398-6.440344-2.537994-12.777994-5.310717c-3.696963-1.613754-7.335244-3.31553-10.958854-5.12-2.934097-1.467049-5.956218-3.080802-8.802292-4.81192a53.209857 53.209857 0 0 1-6.352321-4.401146 14.802521 14.802521 0 0 1-3.550258-3.814326 3.418223 3.418223 0 0 1-0.410773-3.124814 2.71404 2.71404 0 0 1 0.205386-0.366762 8.538223 8.538223 0 0 1 3.638281-2.772722 31.218797 31.218797 0 0 1 6.587049-2.068539 84.193926 84.193926 0 0 1 9.169054-1.467049c3.799656-0.396103 7.599312-0.630831 11.413639-0.777536 4.401146-0.176046 8.802292-0.220057 13.306132-0.190716 4.943954 0 9.902579 0.161375 14.846533 0.366762q8.024756 0.322751 16.034842 0.8949 8.450201 0.586819 16.871061 1.379026 8.684928 0.821547 17.369856 1.833811t17.501891 2.259255q8.655587 1.21765 17.281834 2.640687 8.376848 1.379026 16.724356 2.934098 7.936734 1.467049 15.814785 3.300859c4.870602 1.100287 9.726533 2.288596 14.553123 3.579599 4.401146 1.173639 8.655587 2.435301 12.924699 3.828997 3.696963 1.21765 7.335244 2.537994 10.958854 4.049055a73.79255 73.79255 0 0 1 8.655587 4.2251 29.22361 29.22361 0 0 1 6.205616 4.401146 7.892722 7.892722 0 0 1 2.08321 7.335244 68.320458 68.320458 0 0 1-5.750831 18.08871 12.191175 12.191175 0 0 1-3.227508 4.21043z" fill="#D87833" p-id="4276"></path><path d="M360.244212 338.154728a6.366991 6.366991 0 1 1 10.958854-6.484356c5.310716 8.963668 17.149799 17.311175 31.92298 22.57788a97.808138 97.808138 0 0 0 36.368138 5.662808 77.064069 77.064069 0 0 0 36.558853-10.401375c13.995645-8.332837 26.128138-22.255129 33.742121-43.571347a6.361123 6.361123 0 0 1 11.985788 4.269112c-8.802292 24.39702-22.841948 40.490544-39.258224 50.231748a89.886074 89.886074 0 0 1-42.544412 12.191174 110.336734 110.336734 0 0 1-41.077364-6.381661c-17.531232-6.264298-31.834957-16.592321-38.656734-28.093983z" fill="#323333" p-id="4277"></path><path d="M375.501519 626.591175a28.563438 28.563438 0 1 0-28.563439-28.548768 28.62212 28.62212 0 0 0 28.563439 28.548768z" fill="#C40202" p-id="4278"></path><path d="M350.106906 718.736504a28.563438 28.563438 0 1 0-28.563439-28.548768 28.60745 28.60745 0 0 0 28.563439 28.548768z" fill="#CE0000" p-id="4279"></path><path d="M356.87 817.292837a28.578109 28.578109 0 1 0-28.563438-28.578109 28.636791 28.636791 0 0 0 28.563438 28.578109z" fill="#C40202" p-id="4280"></path><path d="M357.295444 142.303725c103.500287-23.472779 218.94235-10.562751 310.662235 67.264183C662.148166 128.058682 480.65957 16.959083 357.295444 142.303725z" fill="#E5E5E5" p-id="4281"></path><path d="M754.146791 224.619828a55.219713 55.219713 0 1 0 39.46361 67.396218 55.219713 55.219713 0 0 0-39.46361-67.396218z" fill="#EFEFEF" p-id="4282"></path><path d="M763.066447 224.619828c-24.08894-7.716676-48.706017 9.917249-54.999656 39.404928s8.098109 59.694212 32.143037 67.484241 48.706017-9.917249 54.999656-39.434269-8.068768-59.738223-32.143037-67.4549z" fill="#FAFAFA" p-id="4283"></path><path d="M681.791949 126.78235c-78.61914-59.547507-197.186017-73.79255-290.695702-64.271404-33.199312 3.374212-53.063152 47.253639-27.521834 73.440458 103.441605-23.472779 216.653754-2.831404 308.373639 74.99553 37.556447-20.230602 40.97467-60.603782 9.843897-84.164584z" fill="#FFFFFF" p-id="4284"></path><path d="M535.615215 314.902006a5.12 5.12 0 0 1-1.070945-0.117364c-28.152665-6.000229-41.312092-16.929742-41.8549-17.384527a5.13467 5.13467 0 0 1 6.61639-7.848711c0.205387 0.161375 12.088481 9.799885 37.380401 15.198625a5.13467 5.13467 0 0 1-1.070946 10.151977zM349.725473 346.414212a5.13467 5.13467 0 0 1-2.596676-9.565158c0.190716-0.117364 8.890315-5.42808 17.516561-19.071633a5.13467 5.13467 0 1 1 8.670258 5.486762c-10.137307 16.020172-20.538682 22.181777-21.022808 22.431175a5.10533 5.10533 0 0 1-2.567335 0.718854z" fill="#323333" p-id="4285"></path><path d="M269.565931 263.922063a1.584413 1.584413 0 0 1-1.305673-2.479312c1.569742-2.259255 0.352092-7.702006-0.205387-9.433123a1.584413 1.584413 0 0 1 3.00745-0.968253c0.264069 0.836218 2.537994 8.244814-0.205387 12.205846a1.584413 1.584413 0 0 1-1.291003 0.674842zM308.516075 292.309456a1.584413 1.584413 0 0 1-1.467049-2.317937 20.098567 20.098567 0 0 0 0-18.602178 1.584413 1.584413 0 0 1 2.743381-1.584413 23.296734 23.296734 0 0 1 0 21.68298 1.584413 1.584413 0 0 1-1.276332 0.821548zM429.782321 294.876791a1.584413 1.584413 0 0 1-1.085616-2.596676c6.645731-7.922063 1.643095-17.912665 1.467049-18.338109a1.587347 1.587347 0 0 1 2.816733-1.467049c0.264069 0.498797 6.190946 12.264527-1.80447 21.815014a1.584413 1.584413 0 0 1-1.393696 0.58682zM380.562837 296.197135a1.584413 1.584413 0 0 1-0.997593-2.596677c6.161605-7.173868 2.229914-18.308768 2.200573-18.426131a1.584413 1.584413 0 0 1 2.934097-1.070946c0.190716 0.528138 4.577192 12.998052-2.772722 21.565616a1.584413 1.584413 0 0 1-1.364355 0.528138z" p-id="4286"></path></svg>