<?xml version="1.0" standalone="no"?><!DOCTYPE svg PUBLIC "-//W3C//DTD SVG 1.1//EN" "http://www.w3.org/Graphics/SVG/1.1/DTD/svg11.dtd"><svg t="1572791605806" class="icon" viewBox="0 0 1024 1024" version="1.1" xmlns="http://www.w3.org/2000/svg" p-id="4086" xmlns:xlink="http://www.w3.org/1999/xlink" width="200" height="200"><defs><style type="text/css"></style></defs><path d="M940.884475 585.68863a107.909322 107.909322 0 0 1 0-35.235955l9.653513-58.414508a137.60368 137.60368 0 0 0-39.056873-120.194461l-42.143974-41.587283a108.010538 108.010538 0 0 1-20.81262-28.517718l-26.569302-52.936171a137.616332 137.616332 0 0 0-102.266508-74.292829l-58.541029-8.856434a107.858714 107.858714 0 0 1-33.502624-10.880761l-52.404785-27.252513a137.628984 137.628984 0 0 0-126.406617 0l-52.569262 27.227209a107.694237 107.694237 0 0 1-33.515276 10.880761l-58.528377 8.856434a137.60368 137.60368 0 0 0-102.317116 74.356089l-26.569302 52.936171a108.010538 108.010538 0 0 1-20.711403 28.505066l-42.143974 41.587283a137.578376 137.578376 0 0 0-39.056874 120.194461l9.653513 58.389204a107.909322 107.909322 0 0 1 0 35.235955l-9.653513 58.414508a137.578376 137.578376 0 0 0 39.056874 120.194461l42.143974 41.587284a108.137059 108.137059 0 0 1 20.812619 28.517717l26.569302 52.936171a137.60368 137.60368 0 0 0 102.266509 74.292829l58.528376 8.856434a107.694237 107.694237 0 0 1 33.515277 10.880762l52.404785 27.252512a137.616332 137.616332 0 0 0 126.406616 0l52.632522-27.227208a107.694237 107.694237 0 0 1 33.515277-10.880762l58.528376-8.856434a137.60368 137.60368 0 0 0 102.266509-74.292829l26.569301-52.936171a108.137059 108.137059 0 0 1 20.711404-28.505065l42.143974-41.587283a137.578376 137.578376 0 0 0 39.056873-120.194461z m-186.111634-17.611651c0 133.846021-108.896182 242.754855-242.754855 242.754855s-242.792811-108.908834-242.792811-242.754855 108.896182-242.754855 242.754855-242.754855 242.754855 108.896182 242.754855 242.754855z" fill="#26AA61" p-id="4087"></path><path d="M477.604414 327.763969a243.349501 243.349501 0 0 0-34.388267-2.454497c-133.846021 0-242.754855 108.896182-242.754856 242.754855S309.357473 810.819182 443.216147 810.819182a243.349501 243.349501 0 0 0 34.388267-2.454498c-117.664051-16.751312-208.366587-118.119525-208.366587-240.313009s90.72784-223.536393 208.366587-240.287706zM940.884475 585.68863a107.909322 107.909322 0 0 1 0-35.235955l9.653513-58.414508a137.60368 137.60368 0 0 0-39.056873-120.194461l-42.143974-41.587283a108.010538 108.010538 0 0 1-20.81262-28.517718l-26.569302-52.936171a137.616332 137.616332 0 0 0-102.266508-74.292829l-58.541029-8.856434a107.858714 107.858714 0 0 1-33.502624-10.880761l-52.404785-27.252513a137.66694 137.66694 0 0 0-97.58525-10.99463 137.211466 137.211466 0 0 1 28.808714 10.99463l52.569262 27.227209a107.694237 107.694237 0 0 0 33.515276 10.880761l58.528377 8.856434a137.60368 137.60368 0 0 1 102.2159 74.356089l26.569302 52.936171a108.010538 108.010538 0 0 0 20.711403 28.505066l42.143974 41.587283a137.578376 137.578376 0 0 1 39.056874 120.194461l-9.653513 58.414508a107.909322 107.909322 0 0 0 0 35.235955l9.653513 58.414509a137.578376 137.578376 0 0 1-39.056874 120.194461l-42.143974 41.587283a108.137059 108.137059 0 0 0-20.711403 28.505065l-26.569302 52.936171a137.60368 137.60368 0 0 1-102.266508 74.292829l-58.528377 8.856434a107.694237 107.694237 0 0 0-33.515276 10.880762l-52.569262 27.23986a137.211466 137.211466 0 0 1-28.808715 10.994631 137.515115 137.515115 0 0 0 97.635859-10.994631l52.518653-27.227208a107.656281 107.656281 0 0 1 33.515277-10.880762l58.541028-8.856434a137.616332 137.616332 0 0 0 102.266509-74.292829l26.569302-52.936171a108.137059 108.137059 0 0 1 20.711403-28.505065l42.143974-41.587283a137.60368 137.60368 0 0 0 39.056873-120.194461z" fill="#0C9349" p-id="4088"></path><path d="M883.570695 310.645747a48.406738 48.406738 0 1 1-48.406737-48.406737 48.406738 48.406738 0 0 1 48.406737 48.406737z" fill="#E8E8E8" p-id="4089"></path><path d="M835.163958 262.23901a48.077784 48.077784 0 0 0-25.304097 7.173711 48.292869 48.292869 0 0 1 0 82.466053 48.381434 48.381434 0 1 0 25.304097-89.639764z" fill="#D1D1D1" p-id="4090"></path><path d="M918.61687 790.449384a49.722551 49.722551 0 1 1-49.722551-49.722551 49.722551 49.722551 0 0 1 49.722551 49.722551z" fill="#F2433B" p-id="4091"></path><path d="M868.894319 740.726833a49.406249 49.406249 0 0 0-24.975144 6.781498 49.633986 49.633986 0 0 1 0 85.882105 49.697247 49.697247 0 1 0 24.975144-92.663603z" fill="#D83636" p-id="4092"></path><path d="M719.37241 864.198175a46.040805 46.040805 0 1 1-46.040805-46.015501 46.040805 46.040805 0 0 1 46.040805 46.015501z" fill="#FFDB56" p-id="4093"></path><path d="M673.331605 818.182674a45.838372 45.838372 0 0 0-25.848135 7.932835 46.028153 46.028153 0 0 1 0 76.203288 46.040805 46.040805 0 1 0 25.848135-84.136123z" fill="#F6C134" p-id="4094"></path><path d="M416.899886 869.537339a46.040805 46.040805 0 1 1-46.028153-46.028152 46.040805 46.040805 0 0 1 46.028153 46.028152z" fill="#F2433B" p-id="4095"></path><path d="M370.871733 823.509187a45.838372 45.838372 0 0 0-25.898743 7.932834 46.028153 46.028153 0 0 1 0 76.203288 46.040805 46.040805 0 1 0 25.848135-84.136122z" fill="#D83636" p-id="4096"></path><path d="M223.867581 552.692088a46.040805 46.040805 0 1 1-46.040804-46.028153 46.040805 46.040805 0 0 1 46.040804 46.028153z" fill="#EDEDED" p-id="4097"></path><path d="M177.826777 506.651283a45.851024 45.851024 0 0 0-25.835483 7.882226 46.040805 46.040805 0 0 1 0 76.203289 46.040805 46.040805 0 1 0 25.835483-84.136123z" fill="#CECECE" p-id="4098"></path><path d="M247.881169 301.498316a48.950776 48.950776 0 1 1-48.950775-48.950775 48.963428 48.963428 0 0 1 48.950775 48.950775z" fill="#FFDB56" p-id="4099"></path><path d="M198.917742 252.534889a48.647127 48.647127 0 0 0-25.139621 7.009234 48.849559 48.849559 0 0 1 0 83.895734 48.938124 48.938124 0 1 0 25.139621-90.904968z" fill="#F6C134" p-id="4100"></path><path d="M506.273956 151.027503z m0 0l-107.150199 52.050528-22.596558 80.327856c-9.716773 34.552745-17.624304 70.320086-26.569302 105.36626-3.795615 14.689028-7.679793 29.340101-12.209227 43.814044-2.884667 9.235995-6.161548 18.332818-9.349864 27.454945-3.036492 8.679305-6.326024 20.091453-5.453033 26.948864 0.379561 2.758147 1.353769 5.478337 4.428217 6.161547s6.541109-0.784427 9.526993-2.252064l20.660795-10.121639c8.755218-4.289044 18.408731-8.76787 28.365893-6.224808 7.110451 1.821895 12.867133 6.983931 17.649607 12.563484 11.083195 12.917742 21.698263 27.138644 36.602377 35.919166 6.654978 3.922135 9.501688-0.809731 9.716773-7.097799 0.784427-22.103129 3.934787-43.78874 6.781498-65.676784 5.528945-42.371711 34.008706-179.962738 39.537652-222.334449l9.919206-76.026159zM511.119691 173.712626z m0 0l6.452545 49.431554 13.765428 105.49278c2.897319 22.254953 6.136244 44.459299 8.856434 66.726904 1.999024 16.371751 3.340141 32.73085 4.63065 49.191165 0.531386 6.806802 3.972743 12.803873 10.324072 6.262764l35.425736-36.399944c3.314837-3.403401 6.680282-6.85741 10.792197-9.223343 10.43794-5.997071 19.800456 0.392214 29.808226 3.871527q10.399984 3.618486 20.977097 6.73089c6.326024 1.859851 13.740125 5.060819 20.344494 5.060819 0.746471-6.465197-3.163012-13.702169-4.883691-19.851064l-10.817501-38.436923-25.886092-92.094262-12.652048-44.712339z" fill="#C43333" p-id="4101"></path><path d="M618.257238 225.763154l-111.084986-68.017413-17.611652 1.429682-90.436843 43.902608-22.596558 80.327856c-0.531386 1.872503-1.037468 3.795615-1.556202 5.655466l112.603232-9.122127c3.985395-21.837436 7.199016-40.486555 8.704609-52.012572l6.326024-48.48265c6.427241 16.447663 13.778081 34.160531 15.017982 43.687524l7.009235 53.809162 105.669909-8.552785z" fill="#B23030" p-id="4102"></path><path d="M282.294741 0.012652c-75.393557 0-90.829056 41.270982-94.43489 95.383794-4.276392 64.196494 16.447663 166.007529 70.383346 180.076607a100.811523 100.811523 0 0 0 25.455922 3.036491c84.616901 0 204.507712-85.502544 214.831784-107.441196 11.386844-24.253977-5.706074-64.196494-5.706074-64.196494S440.685737 22.533298 330.992476 4.478825a302.38396 302.38396 0 0 0-48.697735-4.478825zM731.277987 0.012652a302.38396 302.38396 0 0 0-48.697734 4.478825c-109.693261 18.054473-161.832353 102.393029-161.832353 102.393029s-17.118222 39.942517-5.706074 64.196494c10.324072 21.938652 130.214883 107.441196 214.831784 107.441196a100.811523 100.811523 0 0 0 25.455922-3.036491c53.897727-14.069078 74.647086-115.892764 70.383346-180.076607C822.107044 41.296286 806.671545 0.025304 731.277987 0.025304z" fill="#F2433B" p-id="4103"></path><path d="M267.567757 232.392827c-6.414589 0-12.652049-1.923111-16.510923-5.490989-56.276312-52.581914-18.876856-170.979784-17.257395-176.002647 2.138196-6.629673 12.550832-10.93137 23.27977-9.602905s17.712868 7.768358 15.524063 14.398032c-10.121639 31.427689-27.834507 121.004192 11.450104 157.68248 6.035027 5.642814 3.542574 13.234043-5.566901 16.966397a29.099712 29.099712 0 0 1-10.918718 2.049632zM762.414679 232.392827a22.583907 22.583907 0 0 1-9.526993-2.036979c-7.958139-3.795615-10.121639-11.386844-4.871038-16.966398 34.287052-36.690941 18.851552-126.254792 10.00777-157.68248-1.859851-6.629673 4.213132-13.082218 13.575648-14.398032s18.471991 2.973231 20.331842 9.602905c1.417029 5.060819 34.084619 123.408081-15.081242 176.002647-3.340141 3.517269-8.83113 5.478337-14.435987 5.478337zM483.437009 139.349662a12.209227 12.209227 0 0 1-4.314349-0.784427L393.797245 106.41638a12.247183 12.247183 0 1 1 8.628697-22.91286L487.751357 115.652376a12.247183 12.247183 0 0 1-4.314348 23.709939zM626.67085 205.469268a12.221879 12.221879 0 0 1-4.314348-0.784427l-85.325416-32.148855a12.247183 12.247183 0 0 1 8.628697-22.91286l85.325416 32.161507a12.247183 12.247183 0 0 1-4.314349 23.709939zM541.345435 142.449414a12.247183 12.247183 0 0 1-4.314349-23.709939l85.325416-32.148855a12.247183 12.247183 0 0 1 8.628697 22.91286l-85.325416 32.148855a12.209227 12.209227 0 0 1-4.314348 0.797079zM398.111594 203.584113a12.247183 12.247183 0 0 1-4.314349-23.709939l85.287459-32.148855a12.247183 12.247183 0 0 1 8.628697 22.912859l-85.287459 32.148856a12.209227 12.209227 0 0 1-4.314348 0.797079z" fill="#D83636" p-id="4104"></path><path d="M505.982959 140.576911m-48.97608 0a48.97608 48.97608 0 1 0 97.95216 0 48.97608 48.97608 0 1 0-97.95216 0Z" fill="#FFE000" p-id="4105"></path><path d="M179.231154 730.428066l13.917253 16.903136a12.955698 12.955698 0 0 0 11.095847 4.719214l21.79948-1.73333a12.955698 12.955698 0 0 1 11.956185 19.926976l-11.854969 18.421383a12.955698 12.955698 0 0 0-1.062772 12.019446l8.451568 20.243278a12.955698 12.955698 0 0 1-15.25837 17.497783l-21.179529-5.579554a12.955698 12.955698 0 0 0-11.753754 2.707539l-16.599487 14.258858a12.955698 12.955698 0 0 1-21.394614-9.096822l-1.265205-21.86274a12.955698 12.955698 0 0 0-6.212156-10.336724l-18.71238-11.386844a12.955698 12.955698 0 0 1 2.03698-23.153248l20.420406-7.932835a12.955698 12.955698 0 0 0 7.920183-9.096823l5.060819-21.318702a12.955698 12.955698 0 0 1 22.634515-5.199991zM864.099193 483.042561l6.465197 20.926488a12.955698 12.955698 0 0 0 8.514828 8.540133l20.901184 6.541109a12.955698 12.955698 0 0 1 3.593182 22.963468l-17.902648 12.652048a12.955698 12.955698 0 0 0-5.49099 10.74159l0.240389 21.900696a12.955698 12.955698 0 0 1-20.724055 10.513852l-17.497783-13.170783a12.955698 12.955698 0 0 0-11.905578-1.910459l-20.762012 6.996583a12.955698 12.955698 0 0 1-16.447663-16.447663l7.072496-20.799968a12.955698 12.955698 0 0 0-1.859852-11.91823l-13.03161-17.523087a12.955698 12.955698 0 0 1 10.589765-20.686099l21.900696 0.316301a12.955698 12.955698 0 0 0 10.754241-5.453033l12.652049-17.864692a12.955698 12.955698 0 0 1 22.938164 3.681746z" fill="#FFE600" p-id="4106"></path></svg>