<?xml version="1.0" standalone="no"?><!DOCTYPE svg PUBLIC "-//W3C//DTD SVG 1.1//EN" "http://www.w3.org/Graphics/SVG/1.1/DTD/svg11.dtd"><svg t="1572794375581" class="icon" viewBox="0 0 1247 1024" version="1.1" xmlns="http://www.w3.org/2000/svg" p-id="4586" xmlns:xlink="http://www.w3.org/1999/xlink" width="243.5546875" height="200"><defs><style type="text/css"></style></defs><path d="M622.747051 294.876128z m0 0l-209.187336 101.600094-44.105326 156.845144c-18.977446 67.473348-34.47146 137.287126-51.83419 205.722046-7.25715 28.683884-15.004157 57.295196-23.839737 85.54365-5.642434 18.015874-12.028725 35.79589-18.269873 53.612192-5.93272 16.945444-12.464154 39.224893-10.649867 52.614334 0.725715 5.442862 2.64886 10.704296 8.636008 12.028726 6.350006 1.397001 12.700012-1.524001 18.596445-4.390576l40.349752-19.757589c17.090587-8.363865 35.941033-17.10873 55.37205-12.137583 13.879298 3.628575 25.12788 13.643441 34.471461 24.511023 21.626306 25.236737 42.36361 52.995334 71.46478 70.14035 13.008441 7.656293 18.542017-1.57843 18.977446-13.843013 1.524001-43.143754 7.674436-85.489221 13.244298-128.233832 10.79501-82.731505 66.402918-351.354894 77.197928-434.086399l19.358446-148.426851zM632.217631 339.162883z m0 0l12.591154 96.520089 26.869596 205.957904c5.660577 43.43404 11.974297 86.795508 17.290159 130.283976 3.900718 31.967744 6.531435 63.899202 9.071437 96.048374 1.034144 13.280584 7.747007 24.982737 20.174876 12.228297l69.088063-71.083779c6.458863-6.640292 13.044726-13.389441 21.08202-17.997731 20.374447-11.702154 38.662464 0.762001 58.202339 7.565578q20.301876 7.075721 40.948466 13.135441c12.337154 3.628575 26.815168 9.779009 39.714751 9.942295 1.469573-12.700012-6.168577-26.742596-9.543152-38.771322l-21.154591-75.057069-50.582332-179.832165-24.511023-87.339794z" fill="#C43333" p-id="4587"></path><path d="M841.459394 440.762977l-216.952485-132.842123-34.47146 2.77586-176.566448 85.761365-44.105326 156.845144c-1.034144 3.628575-2.013859 7.366007-3.02986 11.04901l219.746488-17.798159c7.783293-42.635753 14.060727-78.994073 16.999872-101.600094l12.337155-94.651372c12.554869 32.185458 26.905882 66.783919 29.318884 85.271507l13.697869 105.029096 206.302619-16.709587z" fill="#B23030" p-id="4588"></path><path d="M185.449363 0.018143C38.238085 0.018143 8.120914 80.608788 1.063336 186.254743c-8.363865 125.330972 32.167315 324.122441 137.395984 351.590751a196.832038 196.832038 0 0 0 49.711474 5.93272c165.209009 0 399.270224-166.914439 419.426957-209.767907 22.279449-47.352901-11.139725-125.330972-11.139725-125.330972S494.676504 44.032755 280.518022 8.763008C244.359274 2.812145 212.863245 0.018143 185.449363 0.018143zM1062.040454 0.018143c-27.432025 0-58.909911 2.794003-95.068658 8.744865-214.158483 35.269747-316.012576 199.916327-316.012577 199.916327s-33.419174 78.014357-11.139724 125.330972c20.211161 42.817182 254.254234 209.749764 419.481385 209.749764a196.832038 196.832038 0 0 0 49.711475-5.932719c105.228668-27.468311 145.759848-226.259779 137.395983-351.590752C1239.368903 80.590646 1209.23359 0 1062.022312 0z" fill="#F2433B" p-id="4589"></path><path d="M156.711051 453.644417c-12.518583 0-24.801309-3.755575-32.239887-10.704296-109.873244-102.670523-36.86632-333.828878-33.70946-343.607887 4.172861-12.954012 24.511023-21.354162 45.357185-18.759731s34.47146 15.185585 30.316742 28.121454c-19.75759 61.359199-54.265336 236.256503 22.352021 307.848283 11.774725 11.012724 6.912435 25.835452-10.885725 33.128888a56.714624 56.714624 0 0 1-21.190876 3.973289zM1122.819082 453.644417a44.105326 44.105326 0 0 1-18.614589-3.973289c-15.548443-7.25715-19.793875-22.116163-9.506866-33.128888 66.947204-71.59178 36.793748-246.489084 19.539875-307.848283-3.628575-12.954012 8.218722-25.545166 26.488596-28.121454s36.04989 5.80572 39.696608 18.759731c2.757717 9.797152 66.548061 240.955507-29.445884 343.607887-6.531435 6.930578-17.217587 10.704296-28.15774 10.704296zM578.17001 272.052393a23.839736 23.839736 0 0 1-8.418294-1.542144L403.145706 207.754048a23.912308 23.912308 0 1 1 16.85473-44.740327l166.60601 62.756201a23.912308 23.912308 0 0 1-8.436436 46.282471zM857.787981 401.157083a23.857879 23.857879 0 0 1-8.418294-1.542144l-166.60601-62.756201a23.912308 23.912308 0 0 1 16.85473-44.740327l166.60601 62.756201a23.912308 23.912308 0 0 1-8.436436 46.282471zM691.218256 278.130256a23.912308 23.912308 0 0 1-8.436436-46.282471l166.60601-62.756201a23.912308 23.912308 0 0 1 16.85473 44.740327l-166.60601 62.7562a23.839736 23.839736 0 0 1-8.418294 1.542145zM411.582142 397.455937a23.912308 23.912308 0 0 1-8.436436-46.282471l166.60601-62.756201a23.912308 23.912308 0 0 1 16.85473 44.740327l-166.60601 62.719915a23.839736 23.839736 0 0 1-8.418294 1.57843z" fill="#D83636" p-id="4590"></path><path d="M622.184621 274.447252m-95.631087 0a95.631088 95.631088 0 1 0 191.262175 0 95.631088 95.631088 0 1 0-191.262175 0Z" fill="#C43333" p-id="4591"></path></svg>