<?xml version="1.0" standalone="no"?><!DOCTYPE svg PUBLIC "-//W3C//DTD SVG 1.1//EN" "http://www.w3.org/Graphics/SVG/1.1/DTD/svg11.dtd"><svg t="1572791230520" class="icon" viewBox="0 0 1024 1024" version="1.1" xmlns="http://www.w3.org/2000/svg" p-id="3091" xmlns:xlink="http://www.w3.org/1999/xlink" width="200" height="200"><defs><style type="text/css"></style></defs><path d="M569.005837 140.456674l99.024593 200.638691a63.586736 63.586736 0 0 0 47.953798 34.782488l221.322762 32.192984c52.157748 7.5767 72.969696 71.674943 35.166119 108.455506l-160.133716 156.137566a63.586736 63.586736 0 0 0-18.286382 56.281775l37.819562 220.58747c8.903422 51.933963-45.604062 91.5438-92.263107 67.023426l-198.033201-104.171634a63.586736 63.586736 0 0 0-59.143018 0l-198.06517 104.107695c-46.643061 24.520375-101.166529-15.089462-92.263108-67.023425l37.819562-220.587471a63.586736 63.586736 0 0 0-18.286381-56.281774l-160.21364-156.169536c-37.739639-36.764578-16.911706-100.878806 35.166119-108.455506l221.402685-32.176999a63.586736 63.586736 0 0 0 47.953798-34.782488l99.024593-200.638691c23.32153-47.202522 90.712601-47.202522 114.034132 0.079923z" fill="#FFE000" p-id="3092"></path><path d="M552.269961 323.911921l50.831026 102.908851a44.916724 44.916724 0 0 0 33.823413 24.568329l113.490655 16.496106c36.764578 5.354841 51.550333 50.623226 24.888021 76.614185l-82.176825 80.098827a44.916724 44.916724 0 0 0-12.915556 39.753699l19.405303 113.09104c6.297932 36.764578-32.224952 64.673689-65.169211 47.346383l-101.566145-53.404546a44.916724 44.916724 0 0 0-41.799727 0l-101.566144 53.404546c-32.960244 17.327306-71.467144-10.661728-65.169211-47.346383l19.405303-113.09104a44.916724 44.916724 0 0 0-12.915556-39.753699l-82.176825-80.098827c-26.662312-25.990959-11.95648-71.259344 24.888021-76.614185l113.490655-16.496106a44.916724 44.916724 0 0 0 33.839397-24.568329l50.783072-102.892866c16.528076-33.391828 64.130213-33.391828 80.610334-0.015985z" fill="#FFFF00" p-id="3093"></path><path d="M512.452325 96.115396m-96.115396 0a96.115396 96.115396 0 1 0 192.230791 0 96.115396 96.115396 0 1 0-192.230791 0Z" fill="#E8E8E8" p-id="3094"></path><path d="M450.000495 89.082172a82.816209 74.456264 90 1 0 148.912527 0 82.816209 74.456264 90 1 0-148.912527 0Z" fill="#F7F7F7" p-id="3095"></path></svg>