<?xml version="1.0" standalone="no"?><!DOCTYPE svg PUBLIC "-//W3C//DTD SVG 1.1//EN" "http://www.w3.org/Graphics/SVG/1.1/DTD/svg11.dtd"><svg t="1572794307615" class="icon" viewBox="0 0 1024 1024" version="1.1" xmlns="http://www.w3.org/2000/svg" p-id="4434" xmlns:xlink="http://www.w3.org/1999/xlink" width="200" height="200"><defs><style type="text/css"></style></defs><path d="M642.22662 1024H381.720886c-28.845648 0-48.041278-35.915367-36.094348-67.535209l128.850855-341.061756c14.035034-37.138399 57.765871-37.287549 72.039545-0.35796l131.654879 341.061755c12.230316 31.664587-6.965314 67.89317-35.945197 67.89317z" fill="#C47526" p-id="4435"></path><path d="M435.161401 942.385012m15.660771 0l122.303162 0q15.660771 0 15.66077 15.660771l0 0q0 15.660771-15.66077 15.660771l-122.303162 0q-15.660771 0-15.660771-15.660771l0 0q0-15.660771 15.660771-15.660771Z" fill="#AA4900" p-id="4436"></path><path d="M565.175628 33.075921l92.398547 187.213327a59.331948 59.331948 0 0 0 44.745059 32.455083l206.587938 30.023935c48.667709 7.069719 68.087065 66.878948 32.813044 101.198408l-149.493243 145.704828a59.331948 59.331948 0 0 0-17.062782 52.515784l35.288936 205.827272c8.307666 48.458899-42.552551 85.418318-86.089494 62.538678l-184.782179-97.201184a59.331948 59.331948 0 0 0-55.185573 0l-184.812009 97.141524c-43.522028 22.87964-94.39716-14.079779-86.089494-62.538678l35.288937-205.827272a59.331948 59.331948 0 0 0-17.062783-52.515784l-149.493242-145.719743c-35.214362-34.304545-15.780091-94.128689 32.813043-101.198409l206.587938-30.023934a59.331948 59.331948 0 0 0 44.745059-32.455083l92.398548-187.213328c21.761014-44.014223 84.642737-44.014223 106.40375 0.074576z" fill="#FFE000" p-id="4437"></path><path d="M541.684472 264.676347l37.40687 75.91745a33.141174 33.141174 0 0 0 24.952827 18.121749l83.777666 12.170656a33.141174 33.141174 0 0 1 18.360389 56.527925l-60.61464 59.093308a33.141174 33.141174 0 0 0-9.530697 29.337844l14.378079 83.43462a33.141174 33.141174 0 0 1-48.086024 34.930976l-74.933059-39.405482a33.141174 33.141174 0 0 0-30.844261 0L421.618563 634.19596a33.141174 33.141174 0 0 1-48.086023-34.916061l14.303504-83.43462a33.141174 33.141174 0 0 0-9.530698-29.337844l-60.61464-59.093308a33.141174 33.141174 0 0 1 18.360389-56.527925l83.777666-12.170656a33.141174 33.141174 0 0 0 25.027403-18.121749l37.46653-75.91745a33.141174 33.141174 0 0 1 59.361778 0z" fill="#FFFF00" p-id="4438"></path></svg>